<svg width="24" height="24" viewBox="0 0 24 24" fill="none" xmlns="http://www.w3.org/2000/svg">
<path d="M16.9999 11.1666V12.8333H10.3333L13.2499 15.75L12.0666 16.9333L7.13325 12L12.0666 7.06665L13.2499 8.24998L10.3333 11.1666H16.9999ZM3.66659 12C3.66659 9.78984 4.54456 7.67023 6.10736 6.10742C7.67017 4.54462 9.78978 3.66665 11.9999 3.66665C13.0943 3.66665 14.1779 3.88219 15.1889 4.30098C16.2 4.71977 17.1187 5.3336 17.8925 6.10742C19.4553 7.67023 20.3333 9.78984 20.3333 12C20.3333 14.2101 19.4553 16.3297 17.8925 17.8925C16.3297 19.4553 14.2101 20.3333 11.9999 20.3333C10.9056 20.3333 9.82194 20.1178 8.81089 19.699C7.79984 19.2802 6.88118 18.6664 6.10736 17.8925C5.33354 17.1187 4.71971 16.2001 4.30092 15.189C3.88213 14.178 3.66659 13.0943 3.66659 12ZM5.33325 12C5.33325 13.7681 6.03563 15.4638 7.28587 16.714C8.53612 17.9643 10.2318 18.6666 11.9999 18.6666C13.768 18.6666 15.4637 17.9643 16.714 16.714C17.9642 15.4638 18.6666 13.7681 18.6666 12C18.6666 10.2319 17.9642 8.53618 16.714 7.28593C15.4637 6.03569 13.768 5.33331 11.9999 5.33331C10.2318 5.33331 8.53612 6.03569 7.28587 7.28593C6.03563 8.53618 5.33325 10.2319 5.33325 12Z" fill="#B7BDC9"/>
</svg>
