<svg width="24" height="24" viewBox="0 0 24 24" fill="none" xmlns="http://www.w3.org/2000/svg">
<path d="M6.99996 12.8334V11.1667H13.6666L10.75 8.25002L11.9333 7.06669L16.8666 12L11.9333 16.9334L10.75 15.75L13.6666 12.8334H6.99996ZM20.3333 12C20.3333 14.2102 19.4553 16.3298 17.8925 17.8926C16.3297 19.4554 14.2101 20.3334 12 20.3334C10.9056 20.3334 9.82198 20.1178 8.81093 19.699C7.79988 19.2802 6.88122 18.6664 6.1074 17.8926C4.5446 16.3298 3.66663 14.2102 3.66663 12C3.66663 9.78988 4.5446 7.67027 6.1074 6.10746C7.67021 4.54466 9.78982 3.66669 12 3.66669C13.0943 3.66669 14.1779 3.88224 15.189 4.30102C16.2 4.71981 17.1187 5.33364 17.8925 6.10746C18.6663 6.88129 19.2802 7.79994 19.699 8.81099C20.1177 9.82204 20.3333 10.9057 20.3333 12ZM18.6666 12C18.6666 10.2319 17.9642 8.53622 16.714 7.28598C15.4638 6.03573 13.7681 5.33335 12 5.33335C10.2318 5.33335 8.53616 6.03573 7.28591 7.28598C6.03567 8.53622 5.33329 10.2319 5.33329 12C5.33329 13.7681 6.03567 15.4638 7.28591 16.7141C8.53616 17.9643 10.2318 18.6667 12 18.6667C13.7681 18.6667 15.4638 17.9643 16.714 16.7141C17.9642 15.4638 18.6666 13.7681 18.6666 12Z" fill="#B7BDC9"/>
</svg>
