<svg width="16" height="16" viewBox="0 0 16 16" fill="none" xmlns="http://www.w3.org/2000/svg">
<path d="M7.99996 3.20001C8.56575 3.20001 9.10838 3.42477 9.50845 3.82485C9.90853 4.22493 10.1333 4.76755 10.1333 5.33335C10.1333 5.72268 10.032 6.08535 9.84529 6.40001H11.2C11.7066 6.40001 12.1333 6.75735 12.24 7.23201C13.312 11.504 13.3333 11.616 13.3333 11.7333C13.3333 12.0162 13.2209 12.2876 13.0209 12.4876C12.8208 12.6876 12.5495 12.8 12.2666 12.8H3.73329C3.45039 12.8 3.17908 12.6876 2.97905 12.4876C2.77901 12.2876 2.66663 12.0162 2.66663 11.7333C2.66663 11.616 2.68796 11.504 3.75996 7.23201C3.86663 6.75735 4.29329 6.40001 4.79996 6.40001H6.15463C5.96397 6.07702 5.86444 5.7084 5.86663 5.33335C5.86663 4.76755 6.09139 4.22493 6.49146 3.82485C6.89154 3.42477 7.43416 3.20001 7.99996 3.20001ZM7.99996 4.26668C7.71706 4.26668 7.44575 4.37906 7.24571 4.5791C7.04567 4.77914 6.93329 5.05045 6.93329 5.33335C6.93329 5.61624 7.04567 5.88755 7.24571 6.08759C7.44575 6.28763 7.71706 6.40001 7.99996 6.40001C8.28286 6.40001 8.55417 6.28763 8.75421 6.08759C8.95424 5.88755 9.06663 5.61624 9.06663 5.33335C9.06663 5.05045 8.95424 4.77914 8.75421 4.5791C8.55417 4.37906 8.28286 4.26668 7.99996 4.26668Z" fill="#B7BDC9"/>
</svg>
